<svg width="32" height="32" fill="none" xmlns="http://www.w3.org/2000/svg"><path d="M16 0c8.82 0 16 7.178 16 16 0 8.82-7.18 16-16 16-8.822 0-16-7.18-16-16C0 7.178 7.178 0 16 0z" fill="#C2185B"/><path d="M24.75 5.442V5.44a13.693 13.693 0 00-11.553-2.867 64.965 64.965 0 014.506 7.359 32.283 32.283 0 007.046-4.49zm-4.383 10.333v-.002a25.563 25.563 0 019.325-.161 13.64 13.64 0 00-3.315-8.558 34.785 34.785 0 01-7.687 4.91 62.725 62.725 0 011.677 3.811zm-4.797-4.979a62.718 62.718 0 00-4.668-7.521 13.73 13.73 0 00-8.255 9.633c4.44.19 8.833-.55 12.924-2.112zm2.57 5.546a60.333 60.333 0 00-1.545-3.476c-4.48 1.746-9.2 2.588-14.267 2.315-.21 3.746 1.004 7.06 3.19 9.653a25.718 25.718 0 0112.622-8.492zm3.067 1.596v.001a64.886 64.886 0 012.572 9.351 13.693 13.693 0 005.789-9.39 23.272 23.272 0 00-8.361.038zM7.138 26.46h.002a13.644 13.644 0 0014.543 2.01 62.207 62.207 0 00-2.723-10.002A23.421 23.421 0 007.138 26.46z" fill="#EC407A"/></svg>