<svg width="40" height="40" fill="none" xmlns="http://www.w3.org/2000/svg"><g clip-path="url(#clip0)" fill="#fff"><path d="M37.203 2.85H3.37A2.539 2.539 0 00.833 5.386v29.8a2.54 2.54 0 002.537 2.536h33.833a2.54 2.54 0 002.536-2.536v-29.8a2.539 2.539 0 00-2.536-2.536zm1.016 32.336c0 .56-.456 1.016-1.017 1.016H3.37a1.018 1.018 0 01-1.017-1.016v-25.07H38.22v25.07zm0-26.59H2.353v-3.21c0-.56.456-1.016 1.017-1.016h33.833c.56 0 1.016.456 1.016 1.016v3.21z"/><path d="M35.855 6.343a.779.779 0 00-.207-.39.725.725 0 00-.247-.163.752.752 0 00-.713.07.73.73 0 00-.28.341.769.769 0 00-.043.44.787.787 0 00.208.388.779.779 0 00.389.208.763.763 0 00.908-.745c0-.05-.005-.1-.015-.149zm-3.624-.611H17.316a.76.76 0 000 1.52h14.915a.76.76 0 000-1.52zm-23.22.611a.761.761 0 00-1.447-.142.767.767 0 000 .581.771.771 0 00.411.412.766.766 0 00.582 0 .768.768 0 00.454-.554.755.755 0 000-.297zm2.804 0a.72.72 0 00-.113-.273.722.722 0 00-.21-.21.753.753 0 00-.57-.113.803.803 0 00-.273.113.726.726 0 00-.211.21.754.754 0 00-.128.421.764.764 0 00.76.76.746.746 0 00.422-.127.764.764 0 00.323-.78zm-5.816-.389a.768.768 0 00-.959-.094.727.727 0 00-.21.21.749.749 0 00-.128.421.76.76 0 00.76.76.762.762 0 00.76-.76c0-.2-.082-.396-.223-.537zm29.651 5.851H4.922a.76.76 0 00-.76.76v21.099c0 .42.34.76.76.76h30.726c.42 0 .76-.34.76-.76v-21.1a.76.76 0 00-.76-.76zm-.76 21.1H5.681v-19.58H34.89v19.58z"/><path d="M18.895 14.67H7.76a.76.76 0 00-.76.76v15.477c0 .42.34.76.76.76h11.135c.42 0 .76-.34.76-.76V15.431a.76.76 0 00-.76-.76zm-.76 15.477H8.52V16.191h9.615v13.956z"/><path d="M14.189 23.169l2.765-5.175a.76.76 0 10-1.34-.716l-2.286 4.278-2.286-4.278a.76.76 0 00-1.34.716l2.764 5.175-2.765 5.175a.76.76 0 001.34.716l2.287-4.278 2.285 4.278a.76.76 0 101.34-.716l-2.764-5.175zm18.873-8.499H21.927l-.02.002a.769.769 0 00-.39.12.753.753 0 00-.234.237c-.004.005-.008.01-.01.016l-.006.01a.793.793 0 00-.021.041l-.014.027-.015.04a.175.175 0 00-.012.032l-.01.035-.01.039-.006.03a.859.859 0 00-.007.045l-.002.028a.782.782 0 00-.003.048v6.565c0 .42.34.76.76.76h11.139a.778.778 0 00.084-.006l.024-.004a.736.736 0 00.16-.042l.015-.005a.743.743 0 00.08-.039l.017-.01a.735.735 0 00.13-.096l.02-.018c.02-.02.04-.042.057-.064l.014-.019a.765.765 0 00.042-.06l.007-.012.006-.01a.794.794 0 00.021-.04l.013-.028a.81.81 0 00.016-.04l.011-.031a.242.242 0 00.01-.036c.004-.013.008-.025.01-.038a.766.766 0 00.012-.076l.004-.028a.781.781 0 00.002-.048v-6.564a.76.76 0 00-.76-.76zm-10.375 6.555V16.76l7.586 4.465h-7.586zm9.615-.57l-7.586-4.464h7.586v4.465zm.76 2.938H21.927l-.02.001a.82.82 0 00-.186.028.71.71 0 00-.204.092.715.715 0 00-.189.172.918.918 0 00-.045.065c-.004.006-.008.01-.011.017l-.005.01a.794.794 0 00-.022.04l-.013.028a.768.768 0 00-.016.04l-.011.031-.01.036a.761.761 0 00-.01.038l-.006.03a.75.75 0 00-.007.046l-.002.027a.778.778 0 00-.003.049v6.564c0 .42.34.76.76.76h11.139a.78.78 0 00.084-.006l.024-.003a.702.702 0 00.16-.043l.014-.005a.736.736 0 00.081-.038l.017-.01a.766.766 0 00.13-.097l.019-.018c.02-.02.04-.041.058-.064l.014-.019a.763.763 0 00.041-.06l.008-.012.005-.01a.754.754 0 00.022-.04l.013-.028.016-.04.011-.031.01-.036a.236.236 0 00.01-.038l.006-.03a.843.843 0 00.007-.045l.002-.028a.778.778 0 00.003-.049v-6.564a.76.76 0 00-.76-.76zm-10.375 6.554v-4.465l7.585 4.465h-7.585zm9.615-.569l-7.586-4.465h7.586v4.465z"/></g><defs><clipPath id="clip0"><path fill="#fff" transform="translate(.833 .833)" d="M0 0h38.905v38.905H0z"/></clipPath></defs></svg>