<svg width="40" height="40" fill="none" xmlns="http://www.w3.org/2000/svg"><g clip-path="url(#clip0)" fill="#fff"><path d="M27.08 8.977L23.375 3.83a.76.76 0 00-1.233 0l-3.706 5.146a.76.76 0 00-.143.444V34.2a2.847 2.847 0 002.844 2.843h3.243a2.847 2.847 0 002.844-2.843V9.42a.76.76 0 00-.144-.444zm-4.322-3.402l2.31 3.207h-4.619l2.31-3.207zm-2.945 4.727h3.608v19.682h-1.325V15.469a.76.76 0 10-1.52 0v14.514h-.763V10.302zm5.89 23.899c0 .73-.593 1.323-1.323 1.323h-3.243c-.73 0-1.324-.593-1.324-1.323v-2.698h5.89v2.698zm0-4.217h-.763V10.302h.764v19.682z"/><path d="M22.08 12.27a.798.798 0 00-.112-.274.729.729 0 00-.342-.28.781.781 0 00-.581 0 .77.77 0 00-.246.165.78.78 0 00-.208.388.767.767 0 00.208.687.766.766 0 00.827.164.745.745 0 00.412-.411.76.76 0 00.043-.44zM8.224 17.746v-.116a1.087 1.087 0 011.118-1.087l2.315-.098a2.469 2.469 0 002.448-2.466 2.469 2.469 0 00-2.466-2.465H6.468a.947.947 0 01-.946-.947.93.93 0 01.92-.931h4.551a3.064 3.064 0 003.06-3.06 3.064 3.064 0 00-3.06-3.061H5.845a.76.76 0 000 1.52h5.148a1.54 1.54 0 010 3.081h-4.52c-.65-.009-1.27.24-1.737.701a2.439 2.439 0 00-.734 1.75 2.469 2.469 0 002.466 2.466h5.171a.947.947 0 11-.032 1.893l-2.314.098a2.61 2.61 0 00-2.589 2.608v.114a6.641 6.641 0 00-5.87 6.589v6.09a6.64 6.64 0 006.632 6.632 6.64 6.64 0 006.632-6.633v-6.09c0-3.4-2.573-6.21-5.874-6.588zm-5.87 6.589a5.12 5.12 0 014.352-5.057v6.198H2.353v-1.141zm10.225 6.09a5.119 5.119 0 01-5.113 5.112 5.119 5.119 0 01-5.113-5.113v-3.428H12.58v3.428zm0-4.95H8.226v-6.197a5.12 5.12 0 014.353 5.057v1.14zM3.665 4.126a.804.804 0 00-.114-.273.766.766 0 00-.631-.338.766.766 0 00-.745.61.76.76 0 101.49 0zm36.068 6.971c-.084-1.794-.987-2.681-1.713-3.394-.785-.772-1.26-1.237-.812-2.764.203-.69-.076-1.054-.26-1.208-.23-.193-.64-.355-1.289-.034-.84.416-2.117 1.64-3.103 2.976-.906 1.226-1.968 3.063-1.884 4.848.062 1.334.628 2.558 1.552 3.419a3.687 3.687 0 00-.727 2.202c0 .523.106 1.02.3 1.473v14.85a3.281 3.281 0 003.278 3.277 3.281 3.281 0 003.277-3.277v-14.36a3.7 3.7 0 00.557-1.963c0-.814-.264-1.567-.711-2.18 1.03-.956 1.605-2.367 1.535-3.865zm-2.9 22.368a1.76 1.76 0 01-1.758 1.757 1.76 1.76 0 01-1.758-1.758V20.337c.394.231.838.393 1.317.467a.749.749 0 00.116.01h.906a.748.748 0 00.116-.01c.05-.007.1-.016.15-.026l.094-.02.04-.01a3.69 3.69 0 00.777-.274v12.99zM36.23 19.07a2.428 2.428 0 01-.208.098l-.04.015-.061.023-.032.01a2.094 2.094 0 01-.07.023l-.027.008a2.239 2.239 0 01-.077.02l-.022.005a2.14 2.14 0 01-.1.02h-.783a2.2 2.2 0 01-.109-.023l-.043-.01a2.03 2.03 0 01-.064-.018c-.018-.006-.036-.01-.054-.017l-.04-.013a2.204 2.204 0 01-1.483-2.07 2.184 2.184 0 011.225-1.964l.016-.007c.03-.015.061-.03.093-.043l.015-.006a2.172 2.172 0 01.633-.157l.04-.003a2.254 2.254 0 01.331 0l.04.004a2.215 2.215 0 01.625.155l.024.009a2.189 2.189 0 01.49.291c.511.401.84 1.023.84 1.72 0 .82-.467 1.557-1.16 1.93zm.835-5.133l-.05-.027a3.477 3.477 0 00-.12-.065c-.022-.01-.042-.022-.063-.032a3.693 3.693 0 00-1.123-.343l-.043-.005a3.655 3.655 0 00-.183-.019l-.054-.004a3.753 3.753 0 00-.45 0l-.053.004a3.716 3.716 0 00-.896.18l-.018.006a3.656 3.656 0 00-.203.076l-.017.007c-.07.028-.139.059-.206.092l-.044.022a3.789 3.789 0 00-.136.072l-.04.021c-.699-.594-1.13-1.488-1.176-2.473-.051-1.09.587-2.58 1.752-4.09a12.133 12.133 0 011.59-1.718c-.125 1.624.72 2.454 1.423 3.145.646.635 1.204 1.183 1.26 2.38.051 1.096-.382 2.117-1.15 2.77z"/></g><defs><clipPath id="clip0"><path fill="#fff" transform="translate(.833 .833)" d="M0 0h38.905v38.905H0z"/></clipPath></defs></svg>