<svg width="39" height="40" fill="none" xmlns="http://www.w3.org/2000/svg"><g clip-path="url(#clip0)" fill="#fff"><path d="M36.37 2.85H2.535A2.539 2.539 0 000 5.386v29.8a2.54 2.54 0 002.536 2.536H36.37a2.54 2.54 0 002.536-2.536v-29.8A2.539 2.539 0 0036.37 2.85zm1.016 32.336c0 .56-.456 1.016-1.017 1.016H2.536c-.56 0-1.016-.456-1.016-1.016v-25.07h35.865v25.07zm0-26.59H1.52v-3.21c0-.56.456-1.016 1.016-1.016H36.37c.56 0 1.017.456 1.017 1.016v3.21z"/><path d="M35.022 6.343a.764.764 0 00-1.282-.389.727.727 0 00-.165.247.76.76 0 00.993.993.77.77 0 00.41-.412.79.79 0 00.059-.29.81.81 0 00-.015-.149zm-3.624-.611H16.483a.76.76 0 000 1.52h14.915a.76.76 0 000-1.52zm-23.22.611a.761.761 0 00-1.447-.142.768.768 0 000 .581.772.772 0 00.411.412.766.766 0 00.581 0 .768.768 0 00.455-.554.755.755 0 000-.297zm2.803 0a.76.76 0 10-1.491.297.76.76 0 001.491-.297zm-5.608 0a.767.767 0 00-.454-.553.766.766 0 00-.582 0 .77.77 0 00-.41.411.768.768 0 000 .581.772.772 0 00.41.412.8.8 0 00.291.057.747.747 0 00.538-.222.728.728 0 00.164-.247.804.804 0 00.058-.29c0-.05-.005-.1-.015-.149zm29.443 5.462H4.089a.76.76 0 00-.76.76v21.099c0 .42.34.76.76.76h30.727c.42 0 .76-.34.76-.76v-21.1a.76.76 0 00-.76-.76zm-.76 21.1H4.849v-19.58h29.207v19.58z"/><path d="M31.27 25.617a.765.765 0 00-.597-.596.75.75 0 00-.57.113.723.723 0 00-.21.21.813.813 0 00-.114.273.751.751 0 00.323.78.745.745 0 00.422.128.768.768 0 00.422-.128.738.738 0 00.21-.21.808.808 0 00.113-.273.762.762 0 000-.297zm-3.633-.611H7.865a.76.76 0 000 1.52h19.772a.76.76 0 000-1.52zm2.887 2.644H7.865a.76.76 0 000 1.52h22.659a.76.76 0 100-1.52zm0 2.643H7.865a.76.76 0 000 1.52h22.659a.76.76 0 000-1.52zm1.619-12.479a3.744 3.744 0 00-.563-1.962c-.461-.736-1.145-1.24-1.925-1.421a2.804 2.804 0 00-.632-.072c-.951 0-1.725.421-2.213.783-.488-.362-1.261-.783-2.213-.783-.212 0-.425.024-.632.072-.78.18-1.464.686-1.925 1.42a3.745 3.745 0 00-.563 1.961v.017c-.003.395.049.766.156 1.134a4.6 4.6 0 00.468 1.056l.012.02c.724 1.196 3.691 3.16 4.28 3.542a.752.752 0 00.421.122c.144 0 .288-.04.414-.122.588-.382 3.555-2.346 4.276-3.538l.016-.025c.213-.362.366-.707.467-1.055.108-.368.159-.739.156-1.129v-.02zm-1.615.724c-.066.227-.166.45-.314.701l-.008.014c-.378.625-2.137 1.934-3.396 2.782-1.316-.887-3.035-2.186-3.395-2.782a3.05 3.05 0 01-.323-.715 2.412 2.412 0 01-.095-.694v-.011l.003-.111a2.218 2.218 0 01.328-1.063c.246-.392.594-.658.98-.747.095-.022.192-.033.29-.033.92 0 1.63.762 1.647.78a.76.76 0 001.13 0c.017-.018.728-.78 1.648-.78.097 0 .194.01.289.033.386.09.735.355.981.748.016.024.03.05.046.075a2.219 2.219 0 01.285 1.108c0 .244-.03.471-.096.695zm-11.406-4.205H7.865a.76.76 0 00-.76.76v7.877c0 .42.34.76.76.76h11.257c.42 0 .76-.34.76-.76v-7.877a.76.76 0 00-.76-.76zm-.76 7.877H8.625v-6.358h9.737v6.358z"/></g><defs><clipPath id="clip0"><path fill="#fff" transform="translate(0 .833)" d="M0 0h38.905v38.905H0z"/></clipPath></defs></svg>