<svg width="40" height="40" fill="none" xmlns="http://www.w3.org/2000/svg"><g clip-path="url(#clip0)" fill="#fff"><path d="M29.029.833H11.543a3.366 3.366 0 00-3.362 3.363v32.18a3.366 3.366 0 003.362 3.363h17.486a3.366 3.366 0 003.362-3.363V4.196A3.366 3.366 0 0029.029.833zm1.842 35.543a1.845 1.845 0 01-1.842 1.843H11.543A1.845 1.845 0 019.7 36.376v-1.982h21.171v1.982zm0-3.502H9.701V7.698h21.17v25.176zm0-26.696H9.701V4.196c0-1.016.826-1.843 1.842-1.843H29.03c1.016 0 1.842.827 1.842 1.843v1.982z"/><path d="M25.672 4.117a.761.761 0 00-1.446-.142.769.769 0 00-.044.439.769.769 0 00.323.483.744.744 0 00.274.113.747.747 0 00.685-.207.771.771 0 00.209-.39.754.754 0 000-.296zm-3.632-.611h-6.396a.76.76 0 100 1.52h6.396a.76.76 0 000-1.52zm-.753 32.041h-2.002a.76.76 0 000 1.52h2.002a.76.76 0 100-1.52zm-8.095-4.82a.77.77 0 00-.208-.389.765.765 0 00-1.075 0 .725.725 0 00-.164.247.77.77 0 00-.043.439.793.793 0 00.113.273.725.725 0 00.21.21.726.726 0 00.422.128.764.764 0 00.76-.76.743.743 0 00-.015-.148zm14.933-.611h-12.79a.76.76 0 100 1.52h12.79a.76.76 0 000-1.52zm-5.276-16.35c.428-.55.683-1.24.683-1.989a3.25 3.25 0 00-3.246-3.246 3.25 3.25 0 00-3.247 3.246c0 .75.256 1.44.684 1.99a2.056 2.056 0 00-1.052 1.792v1.855c0 .42.34.76.76.76h5.71c.42 0 .76-.34.76-.76v-1.856c0-.768-.425-1.44-1.052-1.792zm-2.563-3.716a1.73 1.73 0 011.727 1.727 1.73 1.73 0 01-1.727 1.727 1.728 1.728 0 01-1.727-1.727 1.73 1.73 0 011.727-1.727zm2.095 6.604h-4.19V15.56c0-.295.24-.536.535-.536h3.12c.295 0 .535.24.535.536v1.095zm5.805 2.416h-15.8a.76.76 0 00-.76.76v3.116c0 .42.34.76.76.76h15.8c.42 0 .76-.34.76-.76V19.83a.76.76 0 00-.76-.76zm-15.04 3.116V20.59h14.28v1.596h-14.28zm15.04 2.355h-15.8a.76.76 0 00-.76.76v3.116c0 .42.34.76.76.76h15.8c.42 0 .76-.34.76-.76V25.3a.76.76 0 00-.76-.76zm-15.04 3.116V26.06h14.28v1.596h-14.28z"/></g><defs><clipPath id="clip0"><path fill="#fff" transform="translate(.833 .833)" d="M0 0h38.905v38.905H0z"/></clipPath></defs></svg>