<svg width="266" height="265" fill="none" xmlns="http://www.w3.org/2000/svg"><g filter="url(#filter0_d)"><path d="M110.287 66.859c-.419-6.746 7.197-10.939 12.673-6.978l10.702 7.741a7.999 7.999 0 007.627.959l12.284-4.852c6.286-2.482 12.628 3.465 10.553 9.897l-4.056 12.57a8 8 0 001.446 7.55l8.41 10.184c4.303 5.211.606 13.081-6.152 13.095l-13.208.027a8.001 8.001 0 00-6.734 3.708l-7.086 11.145c-3.627 5.704-12.253 4.619-14.355-1.804l-4.107-12.553a8.004 8.004 0 00-5.608-5.259l-12.79-3.295c-6.544-1.686-8.179-10.226-2.72-14.21L107.837 87a8.002 8.002 0 003.269-6.958l-.818-13.182z" fill="url(#paint0_radial)"/></g><defs><radialGradient id="paint0_radial" cx="0" cy="0" r="1" gradientUnits="userSpaceOnUse" gradientTransform="rotate(27.294 -101.008 278.06) scale(68.6264)"><stop stop-color="#FFA099"/><stop offset="1" stop-color="#FFBCE7"/></radialGradient><filter id="filter0_d" x=".082" y=".454" width="264.993" height="263.792" filterUnits="userSpaceOnUse" color-interpolation-filters="sRGB"><feFlood flood-opacity="0" result="BackgroundImageFix"/><feColorMatrix in="SourceAlpha" values="0 0 0 0 0 0 0 0 0 0 0 0 0 0 0 0 0 0 127 0"/><feOffset dy="40"/><feGaussianBlur stdDeviation="40"/><feColorMatrix values="0 0 0 0 0.833333 0 0 0 0 0.0590278 0 0 0 0 0.337778 0 0 0 0.2 0"/><feBlend in2="BackgroundImageFix" result="effect1_dropShadow"/><feBlend in="SourceGraphic" in2="effect1_dropShadow" result="shape"/></filter></defs></svg>