<svg width="136" height="137" fill="none" xmlns="http://www.w3.org/2000/svg"><g filter="url(#filter0_d)"><path d="M68.671 24.656c2.585-2.883 7.36-1.46 7.945 2.367l1.143 7.481a4.584 4.584 0 002.676 3.5l6.92 3.063c3.54 1.567 3.663 6.548.203 8.287l-6.761 3.4a4.584 4.584 0 00-2.501 3.625l-.775 7.528c-.397 3.852-5.096 5.508-7.819 2.755l-5.322-5.38a4.584 4.584 0 00-4.222-1.259l-7.399 1.59c-3.786.813-6.812-3.145-5.035-6.585l3.472-6.725a4.584 4.584 0 00-.108-4.403l-3.798-6.546c-1.943-3.35.885-7.45 4.706-6.824l7.469 1.224a4.584 4.584 0 004.154-1.463l5.052-5.635z" fill="url(#paint0_radial)"/></g><defs><radialGradient id="paint0_radial" cx="0" cy="0" r="1" gradientUnits="userSpaceOnUse" gradientTransform="rotate(72.724 12.166 61.022) scale(39.3222)"><stop stop-color="#9FBFFB"/><stop offset="1" stop-color="#B4A9F7"/></radialGradient><filter id="filter0_d" x=".821" y=".208" width="135.102" height="136.579" filterUnits="userSpaceOnUse" color-interpolation-filters="sRGB"><feFlood flood-opacity="0" result="BackgroundImageFix"/><feColorMatrix in="SourceAlpha" values="0 0 0 0 0 0 0 0 0 0 0 0 0 0 0 0 0 0 127 0"/><feOffset dy="22.92"/><feGaussianBlur stdDeviation="22.92"/><feColorMatrix values="0 0 0 0 0.168225 0 0 0 0 0.0590278 0 0 0 0 0.833333 0 0 0 0.2 0"/><feBlend in2="BackgroundImageFix" result="effect1_dropShadow"/><feBlend in="SourceGraphic" in2="effect1_dropShadow" result="shape"/></filter></defs></svg>