<svg width="32" height="32" viewBox="0 0 32 32" fill="none" xmlns="http://www.w3.org/2000/svg">
<path d="M16 0C24.8369 0 32 7.16451 32 16C32 24.8355 24.8369 32 16 32C7.16313 31.9986 0 24.8355 0 16C0 7.16451 7.16313 0 16 0Z" fill="#0E76A8"/>
<path d="M9.0155 21.9836H12.0115V11.9975H9.0155V21.9836ZM20.6877 11.6515C19.2336 11.6515 17.932 12.1829 17.0093 13.3541V11.9646H14.0024V21.9836H17.0093V16.5656C17.0093 15.4205 18.0583 14.3029 19.3723 14.3029C20.6863 14.3029 21.0104 15.4205 21.0104 16.5368V21.9823H24.0063V16.3144C24.0063 12.3779 22.1431 11.6515 20.6877 11.6515ZM10.4998 10.9994C11.3277 10.9994 11.9991 10.3279 11.9991 9.49862C11.9991 8.67068 11.3263 7.99927 10.4998 7.99927C9.67181 7.99927 8.99902 8.67068 8.99902 9.49862C9.0004 10.3279 9.67181 10.9994 10.4998 10.9994Z" fill="white"/>
</svg>
