<svg width="32" height="32" viewBox="0 0 32 32" fill="none" xmlns="http://www.w3.org/2000/svg">
<path d="M16 0C24.82 0 32 7.1775 32 16C32 24.82 24.82 32 16 32C7.1775 32 0 24.82 0 16C0 7.1775 7.1775 0 16 0Z" fill="#C2185B"/>
<path d="M24.7493 5.44179V5.44012C21.4976 2.74096 17.2543 1.73345 13.1968 2.57346C14.8609 4.93179 16.3726 7.38679 17.7026 9.93179C20.2201 8.75929 22.5876 7.24596 24.7493 5.44179Z" fill="#EC407A"/>
<path d="M20.3666 15.775V15.7734C23.4024 15.1509 26.5616 15.0917 29.6924 15.6117C29.5999 12.3434 28.3708 9.36253 26.3774 7.0542C24.0241 9.0367 21.4374 10.6792 18.6899 11.9634C19.2916 13.2159 19.8491 14.485 20.3666 15.775Z" fill="#EC407A"/>
<path d="M15.5708 10.7957C14.1958 8.18907 12.64 5.6749 10.9025 3.2749C6.78496 4.92574 3.66496 8.5099 2.64746 12.9082C7.08663 13.0974 11.48 12.3582 15.5708 10.7957Z" fill="#EC407A"/>
<path d="M18.1401 16.3424C17.6626 15.1674 17.1468 14.0107 16.5951 12.8657C12.1151 14.6116 7.39511 15.4541 2.32761 15.1807C2.11761 18.9274 3.33177 22.2407 5.51761 24.834C8.81094 20.7457 13.2384 17.8149 18.1401 16.3424Z" fill="#EC407A"/>
<path d="M21.2068 17.9376V17.9393C22.296 20.9793 23.151 24.1043 23.7785 27.2901C26.8693 25.1576 29.0268 21.7901 29.5676 17.9009C26.7651 17.4043 23.9335 17.4251 21.2068 17.9376Z" fill="#EC407A"/>
<path d="M7.13843 26.46H7.14009C11.2001 29.9042 16.8401 30.685 21.6826 28.4692C21.0543 25.0542 20.1401 21.7134 18.9601 18.4675C14.3534 19.815 10.1909 22.58 7.13843 26.46Z" fill="#EC407A"/>
</svg>
