<svg width="40" height="40" viewBox="0 0 40 40" fill="none" xmlns="http://www.w3.org/2000/svg">
<g clip-path="url(#clip0)">
<path d="M27.0803 8.97658L23.3749 3.83053C23.2321 3.6322 23.0026 3.51465 22.7583 3.51465C22.5139 3.51465 22.2844 3.6322 22.1416 3.83053L18.4362 8.97658C18.343 9.10591 18.293 9.26122 18.293 9.42057V9.54192V34.2007C18.293 35.7686 19.5686 37.0442 21.1365 37.0442H24.38C25.9479 37.0442 27.2235 35.7686 27.2235 34.2007V9.54192V9.42057C27.2235 9.26122 27.1735 9.10583 27.0803 8.97658ZM22.7583 5.57495L25.0676 8.78205H20.449L22.7583 5.57495ZM19.8127 10.3018H23.4206V29.9836H22.0957V15.4693C22.0958 15.0496 21.7556 14.7094 21.3359 14.7094C20.9163 14.7094 20.5761 15.0496 20.5761 15.4693V29.9835H19.8127V10.3018ZM25.7038 34.2006C25.7038 34.9305 25.11 35.5244 24.38 35.5244H21.1365C20.4066 35.5244 19.8127 34.9305 19.8127 34.2006V31.5032H25.7038V34.2006ZM25.7038 29.9836H24.9404V10.3018H25.7038V29.9836Z" fill="white"/>
<path d="M22.0808 12.2693C22.071 12.2214 22.0565 12.1736 22.0375 12.1272C22.0185 12.0816 21.995 12.0376 21.9676 11.9965C21.9403 11.9547 21.9083 11.916 21.8734 11.881C21.8384 11.8461 21.7997 11.8142 21.7579 11.786C21.7169 11.7587 21.6728 11.7359 21.6264 11.7169C21.5808 11.6979 21.533 11.6827 21.4843 11.6728C21.3863 11.6538 21.2852 11.6538 21.1872 11.6728C21.1394 11.6827 21.0915 11.6979 21.0452 11.7169C20.9995 11.7359 20.9555 11.7587 20.9144 11.786C20.8726 11.8142 20.8339 11.8461 20.7989 11.881C20.764 11.916 20.7321 11.9547 20.704 11.9965C20.6766 12.0376 20.653 12.0816 20.634 12.1272C20.615 12.1736 20.6006 12.2214 20.5907 12.2693C20.5809 12.3187 20.5763 12.3689 20.5763 12.4182C20.5763 12.6181 20.6576 12.8141 20.799 12.9555C20.9403 13.0968 21.1363 13.1781 21.3362 13.1781C21.3856 13.1781 21.4358 13.1728 21.4843 13.1629C21.533 13.153 21.5809 13.1386 21.6264 13.1196C21.6728 13.1006 21.7169 13.0771 21.7579 13.0497C21.7997 13.0223 21.8384 12.9904 21.8734 12.9555C21.9083 12.9205 21.9403 12.8818 21.9676 12.84C21.995 12.7989 22.0185 12.7549 22.0375 12.7085C22.0565 12.6629 22.071 12.6151 22.0808 12.5664C22.0907 12.5178 22.096 12.4676 22.096 12.4182C22.096 12.3689 22.0907 12.3187 22.0808 12.2693Z" fill="white"/>
<path d="M8.22423 17.7458L8.224 17.63C8.22407 17.0311 8.7113 16.5439 9.31015 16.5439C9.32087 16.5439 9.33158 16.5437 9.34229 16.5432L11.6569 16.4453C13.0084 16.4358 14.1051 15.3333 14.1051 13.9794C14.1051 12.6197 12.9989 11.5136 11.6393 11.5136H6.46787C5.94622 11.5136 5.52176 11.0891 5.52176 10.5674C5.52176 10.315 5.6213 10.078 5.802 9.90007C5.97532 9.72933 6.20191 9.63587 6.44127 9.63587C6.45009 9.63587 6.45905 9.63609 6.46787 9.63609L10.9927 9.63594C12.6803 9.63594 14.0532 8.26286 14.0532 6.5752C14.0532 4.88753 12.6802 3.51453 10.9926 3.51453H5.84538C5.42579 3.51453 5.08552 3.85472 5.08552 4.27439C5.08552 4.69407 5.42579 5.03426 5.84538 5.03426H10.9926C11.8423 5.03426 12.5335 5.72551 12.5335 6.5752C12.5335 7.42488 11.8423 8.11613 10.9927 8.11621L6.47326 8.11636C5.82236 8.10739 5.20368 8.3564 4.7359 8.81696C4.26266 9.28291 4.00202 9.90448 4.00202 10.5675C4.00202 11.9272 5.10824 13.0334 6.46787 13.0334H11.6392C12.1609 13.0334 12.5853 13.4578 12.5853 13.9795C12.5853 14.5012 12.1609 14.9257 11.6392 14.9257C11.6285 14.9257 11.6178 14.9259 11.6071 14.9264L9.29275 15.0243C7.86382 15.0337 6.70434 16.199 6.70434 17.6316L6.70457 17.7462C3.40469 18.125 0.833374 20.9349 0.833374 24.3347V30.4245C0.833374 34.0817 3.80871 37.0571 7.46588 37.0571C11.123 37.0571 14.0984 34.0817 14.0984 30.4245V24.3347C14.0984 20.934 11.5255 18.1233 8.22423 17.7458ZM2.35311 24.3347C2.35311 21.7735 4.24579 19.6463 6.70601 19.2782V25.4758H2.35311V24.3347ZM12.5786 30.4245C12.5786 33.2437 10.2851 35.5373 7.46588 35.5373C4.64669 35.5373 2.35311 33.2437 2.35311 30.4245V26.9956H12.5786V30.4245ZM12.5786 25.4758H8.22575V19.2782C10.686 19.6463 12.5786 21.7735 12.5786 24.3347V25.4758Z" fill="white"/>
<path d="M3.66454 4.12583C3.65466 4.07795 3.64023 4.03008 3.62123 3.98373C3.60223 3.93814 3.57868 3.89407 3.55132 3.85303C3.52404 3.81124 3.49213 3.77249 3.45717 3.73753C3.31584 3.5962 3.11979 3.51489 2.91995 3.51489C2.7201 3.51489 2.52406 3.5962 2.38272 3.73753C2.34777 3.77249 2.31585 3.81124 2.2885 3.85303C2.26046 3.89407 2.23759 3.93814 2.21859 3.98373C2.19883 4.03008 2.18447 4.07795 2.17452 4.12583C2.16464 4.17522 2.16016 4.22537 2.16016 4.27476C2.16016 4.32415 2.16472 4.3743 2.17452 4.42293C2.1844 4.47157 2.19883 4.51944 2.21851 4.56503C2.23751 4.61138 2.26038 4.65545 2.28842 4.69649C2.31578 4.73828 2.34769 4.77703 2.38265 4.81199C2.4176 4.84694 2.45635 4.87885 2.49822 4.90621C2.53925 4.93357 2.58333 4.95712 2.62892 4.97612C2.67527 4.99511 2.72314 5.00955 2.77177 5.01943C2.82041 5.02931 2.87056 5.03463 2.91995 5.03463C3.11979 5.03463 3.31584 4.95332 3.45717 4.81199C3.49213 4.77703 3.52404 4.73828 3.55132 4.69649C3.57868 4.65545 3.60223 4.61138 3.62123 4.56503C3.64023 4.51944 3.65466 4.47157 3.66454 4.42293C3.67442 4.3743 3.67974 4.32415 3.67974 4.27476C3.67974 4.22537 3.67442 4.17522 3.66454 4.12583Z" fill="white"/>
<path d="M39.7329 11.0965C39.649 9.30349 38.7457 8.41604 38.0199 7.70298C37.2346 6.93141 36.7606 6.46569 37.2082 4.93934C37.4109 4.24832 37.1318 3.88548 36.9473 3.7307C36.7177 3.53815 36.3081 3.37599 35.6591 3.69719C34.8183 4.11344 33.5421 5.33721 32.5557 6.67298C31.65 7.89948 30.5879 9.73608 30.6715 11.5209C30.734 12.8555 31.2999 14.0793 32.2237 14.94C31.7672 15.5561 31.4966 16.3179 31.4966 17.1418C31.4966 17.6645 31.6031 18.1628 31.7969 18.6151V33.4646C31.7969 35.272 33.2673 36.7423 35.0746 36.7423C36.8818 36.7423 38.3523 35.272 38.3523 33.4646V19.1058C38.7065 18.5352 38.9089 17.8618 38.9089 17.1418C38.9089 16.3278 38.6445 15.5747 38.1979 14.9627C39.2284 14.0062 39.8031 12.5952 39.7329 11.0965ZM36.8325 33.4645C36.8326 34.4339 36.044 35.2225 35.0746 35.2225C34.1053 35.2225 33.3167 34.4339 33.3167 33.4645V20.3371C33.7113 20.5683 34.155 20.7303 34.6338 20.8042C34.6721 20.8102 34.7109 20.8131 34.7496 20.8131H35.6559C35.6947 20.8131 35.7334 20.8102 35.7717 20.8042C35.8218 20.7965 35.8717 20.7875 35.9213 20.7777C35.953 20.7716 35.9842 20.7644 36.0156 20.7575C36.0291 20.7545 36.0427 20.7516 36.0562 20.7484C36.329 20.6847 36.5888 20.5921 36.8325 20.4741V33.4645ZM36.2299 19.0707C36.2266 19.0723 36.2235 19.0739 36.2204 19.0756C36.1985 19.0872 36.1764 19.0983 36.154 19.1093C36.1435 19.1144 36.1328 19.1195 36.1221 19.1245C36.1051 19.1324 36.088 19.1402 36.0708 19.1477C36.0546 19.1548 36.0383 19.1616 36.022 19.1682C36.0087 19.1736 35.9954 19.1791 35.9821 19.1843C35.9618 19.1921 35.9413 19.1994 35.9208 19.2066C35.9101 19.2103 35.8996 19.2142 35.8888 19.2178C35.8657 19.2255 35.8423 19.2326 35.8189 19.2395C35.81 19.2422 35.8012 19.245 35.7923 19.2476C35.7667 19.2548 35.741 19.2612 35.7151 19.2675C35.7078 19.2692 35.7007 19.2713 35.6934 19.2729C35.6602 19.2806 35.6268 19.2875 35.5933 19.2936H34.8126C34.8119 19.2935 34.8111 19.2933 34.8104 19.2932C34.7737 19.2865 34.7374 19.2786 34.7013 19.2701C34.6869 19.2667 34.6726 19.263 34.6582 19.2593C34.6367 19.2537 34.6153 19.2479 34.594 19.2416C34.5761 19.2364 34.5581 19.2312 34.5403 19.2255C34.5269 19.2213 34.5136 19.2165 34.5002 19.2119C33.6332 18.9153 33.0165 18.0831 33.0165 17.1419C33.0165 16.4372 33.352 15.8097 33.8712 15.4096C33.8912 15.3941 33.9115 15.3792 33.932 15.3645C33.9669 15.3394 34.0026 15.3153 34.0391 15.2923C34.055 15.2822 34.0711 15.2722 34.0873 15.2625C34.1376 15.2325 34.1892 15.2044 34.2421 15.1784C34.2473 15.1758 34.2525 15.1731 34.2576 15.1706C34.2883 15.1558 34.3193 15.1418 34.3507 15.1284C34.3559 15.1262 34.3611 15.1243 34.3663 15.1222C34.4209 15.0995 34.4765 15.0791 34.5332 15.0608C34.5508 15.0552 34.5683 15.0498 34.586 15.0447C34.6244 15.0333 34.6632 15.0232 34.7025 15.0139C34.7325 15.0069 34.7626 15.0003 34.7929 14.9946C34.8135 14.9906 34.8341 14.9868 34.8548 14.9835C34.9024 14.976 34.9503 14.9697 34.9987 14.9653C35.0118 14.9641 35.025 14.9633 35.0382 14.9623C35.0928 14.9583 35.1477 14.9555 35.2031 14.9555C35.2593 14.9555 35.3148 14.9584 35.3702 14.9625C35.3832 14.9635 35.3964 14.9643 35.4094 14.9655C35.4578 14.97 35.5059 14.9764 35.5535 14.984C35.575 14.9874 35.5964 14.9913 35.6177 14.9954C35.6483 15.0012 35.6786 15.008 35.7087 15.0152C35.7484 15.0246 35.7877 15.035 35.8265 15.0466C35.8426 15.0514 35.8587 15.0564 35.8747 15.0615C35.9292 15.0792 35.9828 15.0988 36.0353 15.1205C36.043 15.1237 36.0508 15.1267 36.0585 15.13C36.1506 15.1693 36.2394 15.2149 36.3245 15.2659C36.3433 15.2773 36.3619 15.2891 36.3804 15.301C36.4147 15.3231 36.4484 15.346 36.4814 15.3698C36.5044 15.3865 36.5272 15.4037 36.5497 15.4214C37.0603 15.822 37.3893 16.444 37.3893 17.1419C37.3893 17.961 36.9225 18.6978 36.2299 19.0707ZM37.065 13.9376C37.0485 13.928 37.0313 13.9199 37.0147 13.9106C36.9751 13.8882 36.9348 13.8667 36.8942 13.8458C36.8735 13.8352 36.8529 13.8242 36.8319 13.8139C36.6966 13.7474 36.5565 13.6894 36.4126 13.6395C36.4046 13.6368 36.3967 13.6341 36.3888 13.6314C36.3167 13.607 36.2438 13.5844 36.1698 13.5644C36.1695 13.5644 36.1692 13.5643 36.1688 13.5641C36.0191 13.5236 35.8657 13.4926 35.7091 13.4711C35.6948 13.4691 35.6804 13.4674 35.6661 13.4656C35.6056 13.458 35.5448 13.4519 35.4834 13.4473C35.4651 13.446 35.4469 13.4443 35.4286 13.4432C35.3538 13.4387 35.2787 13.4356 35.2028 13.4356C35.1278 13.4356 35.0534 13.4386 34.9794 13.443C34.9616 13.4441 34.944 13.4458 34.9263 13.447C34.8656 13.4515 34.8053 13.4575 34.7454 13.4649C34.7313 13.4666 34.7174 13.4683 34.7033 13.4703C34.4714 13.5017 34.2463 13.5546 34.0299 13.6271C34.0237 13.6291 34.0177 13.6312 34.0116 13.6333C33.943 13.6566 33.8753 13.6817 33.8085 13.7089C33.803 13.7112 33.7974 13.7132 33.7918 13.7155C33.7222 13.7443 33.6535 13.7748 33.5861 13.8076C33.5714 13.8147 33.5571 13.8226 33.5425 13.8299C33.4964 13.8531 33.4507 13.8771 33.4057 13.9021C33.3926 13.9094 33.3789 13.9157 33.3658 13.9232C32.6671 13.3286 32.2358 12.435 32.1896 11.4498C32.1386 10.3605 32.7772 8.86953 33.9416 7.35929C34.5253 6.60231 35.0876 6.03081 35.5326 5.64245C35.4066 7.26575 36.2517 8.09621 36.9549 8.78701C37.6009 9.42172 38.1588 9.96982 38.2149 11.1676C38.2662 12.2626 37.8334 13.284 37.065 13.9376Z" fill="white"/>
</g>
<defs>
<clipPath id="clip0">
<rect width="38.9053" height="38.9053" fill="white" transform="translate(0.833374 0.833374)"/>
</clipPath>
</defs>
</svg>
