<svg width="40" height="40" viewBox="0 0 40 40" fill="none" xmlns="http://www.w3.org/2000/svg">
<g clip-path="url(#clip0)">
<path d="M29.0287 0.833374H11.543C9.689 0.833374 8.18066 2.34171 8.18066 4.19571V36.3763C8.18066 38.2303 9.689 39.7387 11.543 39.7387H29.0287C30.8827 39.7387 32.391 38.2303 32.391 36.3763V4.19571C32.391 2.34171 30.8828 0.833374 29.0287 0.833374ZM30.8713 36.3763C30.8713 37.3923 30.0447 38.2189 29.0287 38.2189H11.543C10.527 38.2189 9.7004 37.3923 9.7004 36.3763V34.3938H30.8713V36.3763ZM30.8714 32.874H9.70047V7.69794H30.8714V32.874ZM30.8714 6.17821H9.70047V4.19571C9.70047 3.17969 10.5271 2.35311 11.5431 2.35311H29.0288C30.0448 2.35311 30.8714 3.17969 30.8714 4.19571V6.17821Z" fill="white"/>
<path d="M25.6725 4.11744C25.6627 4.06881 25.6481 4.02094 25.6291 3.97535C25.6101 3.929 25.5866 3.88492 25.5592 3.84389C25.5312 3.8021 25.4992 3.76335 25.4643 3.72839C25.4293 3.69344 25.3905 3.66152 25.3488 3.63417C25.3077 3.60681 25.2636 3.58326 25.2181 3.56426C25.1717 3.54526 25.1246 3.53007 25.076 3.52019C24.9779 3.50043 24.8769 3.50043 24.7789 3.52019C24.7302 3.53007 24.6823 3.54526 24.6368 3.56426C24.5904 3.58326 24.5463 3.60681 24.5054 3.63417C24.4635 3.66152 24.4248 3.69344 24.3898 3.72839C24.3548 3.76335 24.3229 3.8021 24.2956 3.84389C24.2683 3.88492 24.2447 3.929 24.2257 3.97535C24.2067 4.02094 24.1923 4.06881 24.1824 4.11744C24.1725 4.16608 24.1672 4.21623 24.1672 4.26562C24.1672 4.31501 24.1725 4.36516 24.1824 4.41379C24.1923 4.46242 24.2067 4.5103 24.2257 4.55589C24.2447 4.60224 24.2683 4.64631 24.2956 4.68734C24.3229 4.72914 24.3548 4.76789 24.3898 4.80284C24.4248 4.8378 24.4635 4.86971 24.5054 4.89707C24.5463 4.92442 24.5904 4.94798 24.6368 4.96698C24.6824 4.98597 24.7302 5.00041 24.7789 5.01029C24.8275 5.02017 24.8776 5.02549 24.927 5.02549C24.9763 5.02549 25.0266 5.02017 25.076 5.01029C25.1246 5.00041 25.1717 4.98597 25.2181 4.96698C25.2636 4.94798 25.3077 4.92442 25.3488 4.89707C25.3905 4.86971 25.4293 4.8378 25.4643 4.80284C25.4992 4.76789 25.5312 4.72914 25.5592 4.68734C25.5866 4.64631 25.6101 4.60224 25.6291 4.55589C25.6481 4.5103 25.6626 4.46242 25.6725 4.41379C25.6823 4.36516 25.6869 4.31501 25.6869 4.26562C25.6869 4.21623 25.6823 4.16608 25.6725 4.11744Z" fill="white"/>
<path d="M22.04 3.50574H15.6444C15.2247 3.50574 14.8845 3.84593 14.8845 4.2656C14.8845 4.68528 15.2247 5.02547 15.6444 5.02547H22.04C22.4596 5.02547 22.7998 4.68528 22.7998 4.2656C22.7998 3.84593 22.4596 3.50574 22.04 3.50574Z" fill="white"/>
<path d="M21.2872 35.5465H19.2845C18.8649 35.5465 18.5247 35.8867 18.5247 36.3064C18.5247 36.7261 18.8649 37.0662 19.2845 37.0662H21.2872C21.7068 37.0662 22.047 36.7261 22.047 36.3064C22.047 35.8867 21.7068 35.5465 21.2872 35.5465Z" fill="white"/>
<path d="M13.1918 30.7273C13.1819 30.6787 13.1675 30.6308 13.1485 30.5852C13.1295 30.5389 13.106 30.4948 13.0786 30.4538C13.0505 30.412 13.0186 30.3732 12.9836 30.3383C12.8073 30.162 12.5452 30.0807 12.2982 30.1308C12.2496 30.1399 12.2017 30.1551 12.1561 30.1741C12.1098 30.1931 12.0657 30.2167 12.0247 30.244C11.9829 30.2714 11.9441 30.3033 11.9092 30.3383C11.8742 30.3732 11.8423 30.412 11.8149 30.4538C11.7876 30.4948 11.764 30.5389 11.745 30.5852C11.726 30.6308 11.7116 30.6787 11.7017 30.7273C11.6918 30.776 11.6865 30.8261 11.6865 30.8755C11.6865 30.9249 11.6918 30.975 11.7017 31.0237C11.7116 31.0723 11.726 31.1202 11.745 31.1665C11.764 31.2121 11.7876 31.2562 11.8149 31.2972C11.8423 31.339 11.8742 31.3778 11.9092 31.4127C11.9441 31.4477 11.9829 31.4796 12.0247 31.5069C12.0657 31.5351 12.1098 31.5579 12.1561 31.5769C12.2017 31.5958 12.2496 31.611 12.2982 31.6202C12.3468 31.63 12.397 31.6354 12.4464 31.6354C12.647 31.6354 12.8423 31.5541 12.9836 31.4127C13.1257 31.2714 13.2063 31.0753 13.2063 30.8755C13.2063 30.8261 13.2017 30.776 13.1918 30.7273Z" fill="white"/>
<path d="M28.1252 30.1156H15.3341C14.9144 30.1156 14.5742 30.4558 14.5742 30.8755C14.5742 31.2951 14.9144 31.6353 15.3341 31.6353H28.1252C28.5448 31.6353 28.885 31.2951 28.885 30.8755C28.885 30.4558 28.5448 30.1156 28.1252 30.1156Z" fill="white"/>
<path d="M22.8488 13.7662C23.2766 13.2163 23.5323 12.5262 23.5323 11.7771C23.5323 9.98705 22.076 8.53076 20.2859 8.53076C18.4959 8.53076 17.0395 9.98712 17.0395 11.7771C17.0395 12.5262 17.2952 13.2163 17.723 13.7662C17.0961 14.1185 16.6714 14.7897 16.6714 15.5585V17.414C16.6715 17.8337 17.0117 18.1739 17.4313 18.1739H23.1406C23.5602 18.1739 23.9005 17.8337 23.9005 17.414V15.5585C23.9005 14.7897 23.4757 14.1185 22.8488 13.7662ZM20.286 10.0504C21.238 10.0504 22.0126 10.825 22.0126 11.7771C22.0126 12.7291 21.2381 13.5037 20.286 13.5037C19.3339 13.5037 18.5594 12.7292 18.5594 11.7771C18.5594 10.825 19.3339 10.0504 20.286 10.0504ZM22.3807 16.6541H18.1912V15.5585C18.1912 15.2635 18.4312 15.0234 18.7263 15.0234H21.8457C22.1408 15.0234 22.3807 15.2635 22.3807 15.5585V16.6541Z" fill="white"/>
<path d="M28.1859 19.0702H12.3858C11.9662 19.0702 11.626 19.4104 11.626 19.8301V22.9455C11.626 23.3652 11.9662 23.7054 12.3858 23.7054H28.1858C28.6054 23.7054 28.9457 23.3652 28.9457 22.9455V19.8301C28.9458 19.4104 28.6055 19.0702 28.1859 19.0702ZM13.1457 22.1856V20.5899H27.426V22.1856H13.1457Z" fill="white"/>
<path d="M28.1859 24.5413H12.3858C11.9662 24.5413 11.626 24.8815 11.626 25.3011V28.4166C11.626 28.8363 11.9662 29.1765 12.3858 29.1765H28.1858C28.6054 29.1765 28.9457 28.8363 28.9457 28.4166V25.3011C28.9458 24.8815 28.6055 24.5413 28.1859 24.5413ZM13.1457 27.6567V26.061H27.426V27.6567H13.1457Z" fill="white"/>
</g>
<defs>
<clipPath id="clip0">
<rect width="38.9053" height="38.9053" fill="white" transform="translate(0.833252 0.833374)"/>
</clipPath>
</defs>
</svg>
