<svg width="39" height="40" viewBox="0 0 39 40" fill="none" xmlns="http://www.w3.org/2000/svg">
<g clip-path="url(#clip0)">
<path d="M36.3691 2.84998H2.53613C1.13775 2.84998 0 3.98757 0 5.38603V9.3555V35.1858C0 36.5842 1.13775 37.722 2.53613 37.722H36.3691C37.7675 37.722 38.9052 36.5842 38.9052 35.1858V9.3555V5.38603C38.9052 3.98757 37.7675 2.84998 36.3691 2.84998ZM37.3855 35.1858C37.3855 35.7462 36.9296 36.2022 36.3691 36.2022H2.53613C1.97566 36.2022 1.51973 35.7462 1.51973 35.1858V10.1154H37.3855V35.1858ZM37.3855 8.59571H1.51973V5.38603C1.51973 4.82563 1.97566 4.36963 2.53613 4.36963H36.3691C36.9296 4.36963 37.3855 4.82556 37.3855 5.38603V8.59571Z" fill="white"/>
<path d="M35.0222 6.34325C35.0124 6.29462 34.9971 6.24674 34.9781 6.20115C34.96 6.1548 34.9363 6.11073 34.909 6.06969C34.8809 6.0279 34.849 5.98915 34.8141 5.95419C34.7791 5.91924 34.7403 5.88733 34.6985 5.85997C34.6575 5.83262 34.6134 5.80906 34.5678 5.79006C34.5214 5.77107 34.4736 5.75663 34.4257 5.74675C34.3277 5.72699 34.2266 5.72699 34.1286 5.74675C34.08 5.75663 34.0321 5.77107 33.9865 5.79006C33.9402 5.80906 33.8961 5.83262 33.8551 5.85997C33.8133 5.88733 33.7745 5.91924 33.7395 5.95419C33.7046 5.98915 33.6727 6.0279 33.6454 6.06969C33.618 6.11073 33.5944 6.1548 33.5754 6.20115C33.5564 6.24674 33.542 6.29462 33.5322 6.34325C33.5223 6.39188 33.517 6.44203 33.517 6.49142C33.517 6.54157 33.5223 6.59096 33.5322 6.64035C33.542 6.68899 33.5564 6.7361 33.5754 6.78245C33.5944 6.82804 33.618 6.87211 33.6454 6.91315C33.6727 6.95494 33.7046 6.99369 33.7395 7.02865C33.7745 7.0636 33.8133 7.09552 33.8551 7.12363C33.8961 7.15099 33.9402 7.17454 33.9865 7.19354C34.0322 7.21254 34.08 7.22697 34.1286 7.23685C34.1773 7.24673 34.2274 7.25129 34.2768 7.25129C34.3262 7.25129 34.3763 7.24673 34.4257 7.23685C34.4736 7.22697 34.5214 7.21254 34.5678 7.19354C34.6134 7.17454 34.6575 7.15099 34.6985 7.12363C34.7403 7.09552 34.7791 7.0636 34.8141 7.02865C34.849 6.99369 34.8809 6.95494 34.909 6.91315C34.9363 6.87211 34.96 6.82804 34.9781 6.78245C34.9971 6.7361 35.0123 6.68899 35.0222 6.64035C35.0313 6.59096 35.0366 6.54157 35.0366 6.49142C35.0366 6.44203 35.0313 6.39188 35.0222 6.34325Z" fill="white"/>
<path d="M31.3979 5.73157H16.4829C16.0633 5.73157 15.723 6.07176 15.723 6.49144C15.723 6.91111 16.0633 7.2513 16.4829 7.2513H31.3979C31.8175 7.2513 32.1577 6.91111 32.1577 6.49144C32.1577 6.07176 31.8175 5.73157 31.3979 5.73157Z" fill="white"/>
<path d="M8.17766 6.34325C8.16786 6.29462 8.15335 6.24674 8.13435 6.20115C8.11535 6.1548 8.0918 6.11073 8.06444 6.06969C8.03633 6.0279 8.00517 5.98915 7.96946 5.95419C7.9345 5.91924 7.89575 5.88733 7.85388 5.85997C7.81285 5.83262 7.76885 5.80906 7.72318 5.79006C7.67691 5.77107 7.6298 5.75663 7.58109 5.74675C7.48307 5.72699 7.382 5.72699 7.28398 5.74675C7.23535 5.75663 7.18748 5.77107 7.14196 5.79006C7.09629 5.80906 7.05154 5.83262 7.0105 5.85997C6.96871 5.88733 6.92996 5.91924 6.895 5.95419C6.86005 5.98915 6.82806 6.0279 6.80078 6.06969C6.77343 6.11073 6.74987 6.1548 6.73087 6.20115C6.71188 6.24674 6.69744 6.29462 6.68756 6.34325C6.67768 6.39188 6.67236 6.44203 6.67236 6.49142C6.67236 6.54157 6.67768 6.59096 6.68756 6.64035C6.69744 6.68823 6.71188 6.7361 6.73087 6.78245C6.74987 6.82804 6.77343 6.87211 6.80078 6.91315C6.82806 6.95494 6.86005 6.99369 6.895 7.02865C6.92996 7.0636 6.96871 7.09552 7.0105 7.12363C7.05154 7.15099 7.09561 7.17454 7.14196 7.19354C7.18755 7.21254 7.23535 7.22697 7.28398 7.23685C7.33269 7.24673 7.38284 7.25129 7.43215 7.25129C7.48231 7.25129 7.53177 7.24673 7.58109 7.23685C7.6298 7.22697 7.67691 7.21254 7.72318 7.19354C7.76885 7.17454 7.81285 7.15099 7.85388 7.12363C7.89575 7.09552 7.9345 7.0636 7.96946 7.02865C8.00517 6.99369 8.03633 6.95494 8.06444 6.91315C8.0918 6.87211 8.11535 6.82804 8.13435 6.78245C8.15335 6.7361 8.16778 6.68823 8.17766 6.64035C8.18754 6.59096 8.19202 6.54157 8.19202 6.49142C8.19202 6.44203 8.18746 6.39188 8.17766 6.34325Z" fill="white"/>
<path d="M10.9814 6.34312C10.9716 6.29449 10.9573 6.24662 10.9383 6.20103C10.9193 6.15467 10.8956 6.1106 10.8684 6.06957C10.841 6.02778 10.8091 5.98902 10.7741 5.95407C10.5979 5.77778 10.3349 5.69723 10.0887 5.74662C10.04 5.7565 9.99217 5.77094 9.94657 5.78994C9.9003 5.80893 9.85622 5.83249 9.81519 5.85984C9.7734 5.8872 9.73457 5.91911 9.69962 5.95407C9.66466 5.98902 9.63275 6.02778 9.60463 6.06957C9.57735 6.1106 9.55372 6.15467 9.53472 6.20103C9.51573 6.24662 9.50137 6.29449 9.49149 6.34312C9.48161 6.39175 9.47705 6.4419 9.47705 6.49129C9.47705 6.54069 9.48169 6.59084 9.49149 6.64023C9.50137 6.6881 9.51573 6.73597 9.53472 6.78232C9.55372 6.82792 9.57735 6.87199 9.60463 6.91302C9.63275 6.95481 9.66466 6.99357 9.69962 7.02852C9.73457 7.06347 9.7734 7.09539 9.81519 7.1235C9.85622 7.15086 9.9003 7.17442 9.94657 7.19341C9.99224 7.21241 10.04 7.22685 10.0887 7.23672C10.1374 7.2466 10.1875 7.25116 10.2368 7.25116C10.4367 7.25116 10.6327 7.17062 10.7741 7.02852C10.809 6.99357 10.8409 6.95481 10.8683 6.91302C10.8956 6.87199 10.9192 6.82792 10.9382 6.78232C10.9572 6.73597 10.9716 6.6881 10.9814 6.64023C10.9913 6.59084 10.9966 6.54069 10.9966 6.49129C10.9966 6.4419 10.9913 6.39168 10.9814 6.34312Z" fill="white"/>
<path d="M5.37299 6.34325C5.36311 6.29462 5.34868 6.24674 5.32968 6.20115C5.31068 6.15556 5.28713 6.11073 5.25977 6.06969C5.23242 6.0279 5.2005 5.98915 5.16555 5.95419C5.13059 5.91924 5.09184 5.88733 5.05005 5.85997C5.00902 5.83262 4.96494 5.80906 4.91859 5.79006C4.873 5.77107 4.8252 5.75663 4.7765 5.74675C4.67847 5.72699 4.57749 5.72699 4.47946 5.74675C4.43152 5.75663 4.38364 5.77107 4.33737 5.79006C4.2917 5.80906 4.24763 5.83262 4.2066 5.85997C4.1648 5.88733 4.12605 5.91924 4.0911 5.95419C4.05614 5.98915 4.02423 6.0279 3.99611 6.06969C3.96876 6.11073 3.9452 6.15556 3.9262 6.20115C3.90721 6.24674 3.89277 6.29462 3.88289 6.34325C3.87301 6.39188 3.86853 6.44203 3.86853 6.49142C3.86853 6.54157 3.87309 6.59096 3.88289 6.64035C3.89277 6.68823 3.90721 6.7361 3.9262 6.78245C3.9452 6.82804 3.96876 6.87211 3.99611 6.91315C4.02423 6.95494 4.05614 6.99369 4.0911 7.02865C4.12605 7.0636 4.1648 7.09552 4.2066 7.12363C4.24763 7.15099 4.2917 7.17454 4.33737 7.19354C4.38364 7.21254 4.43152 7.22697 4.47946 7.23685C4.52878 7.24673 4.57901 7.25129 4.6284 7.25129C4.67771 7.25129 4.72794 7.24673 4.7765 7.23685C4.8252 7.22697 4.87308 7.21254 4.91859 7.19354C4.96494 7.17454 5.00902 7.15099 5.05005 7.12363C5.09184 7.09552 5.13059 7.0636 5.16555 7.02865C5.2005 6.99369 5.23242 6.95494 5.25977 6.91315C5.28713 6.87211 5.31068 6.82804 5.32968 6.78245C5.34868 6.7361 5.36311 6.68823 5.37299 6.64035C5.38287 6.59096 5.38819 6.54157 5.38819 6.49142C5.38819 6.44203 5.38287 6.39188 5.37299 6.34325Z" fill="white"/>
<path d="M34.8159 11.8046H4.08921C3.66961 11.8046 3.32935 12.1448 3.32935 12.5644V33.6639C3.32935 34.0836 3.66961 34.4238 4.08921 34.4238H34.8159C35.2355 34.4238 35.5758 34.0836 35.5758 33.6639V12.5644C35.5758 12.1448 35.2355 11.8046 34.8159 11.8046ZM34.056 32.9041H4.84908V13.3243H34.056V32.9041Z" fill="white"/>
<path d="M31.2693 25.6171C31.2594 25.5684 31.2449 25.5205 31.2259 25.475C31.2069 25.4294 31.1834 25.3853 31.156 25.3435C31.1279 25.3025 31.096 25.263 31.0611 25.228C31.0261 25.193 30.9873 25.1611 30.9456 25.1338C30.9045 25.1064 30.8605 25.0829 30.8149 25.0639C30.7685 25.0449 30.7206 25.0304 30.6728 25.0206C30.5747 25.0008 30.4737 25.0008 30.3757 25.0206C30.3269 25.0304 30.2791 25.0449 30.2336 25.0639C30.1872 25.0829 30.1431 25.1064 30.1021 25.1338C30.0603 25.1611 30.0216 25.193 29.9866 25.228C29.9517 25.263 29.9197 25.3025 29.8924 25.3435C29.8651 25.3853 29.8415 25.4294 29.8225 25.475C29.8035 25.5205 29.7891 25.5684 29.7792 25.6171C29.7693 25.6664 29.764 25.7158 29.764 25.7652C29.764 25.8154 29.7693 25.8648 29.7792 25.9142C29.7891 25.9628 29.8035 26.0107 29.8225 26.0563C29.8415 26.1018 29.865 26.1459 29.8924 26.1877C29.9197 26.2287 29.9517 26.2675 29.9866 26.3025C30.0216 26.3382 30.0603 26.3693 30.1021 26.3974C30.1431 26.4248 30.1872 26.4483 30.2336 26.4673C30.2792 26.4863 30.3269 26.5008 30.3757 26.5107C30.4243 26.5205 30.4744 26.5251 30.5238 26.5251C30.5731 26.5251 30.6234 26.5205 30.6728 26.5107C30.7206 26.5008 30.7685 26.4863 30.8149 26.4673C30.8605 26.4483 30.9045 26.4248 30.9456 26.3974C30.9873 26.3693 31.0261 26.3382 31.0611 26.3025C31.096 26.2675 31.1279 26.2287 31.156 26.1877C31.1834 26.1459 31.2069 26.1018 31.2259 26.0563C31.2449 26.0107 31.2594 25.9628 31.2693 25.9142C31.2791 25.8648 31.2837 25.8154 31.2837 25.7652C31.2837 25.7159 31.2791 25.6665 31.2693 25.6171Z" fill="white"/>
<path d="M27.6365 25.0057H7.86546C7.44586 25.0057 7.10559 25.3459 7.10559 25.7656C7.10559 26.1853 7.44578 26.5255 7.86546 26.5255H27.6365C28.0561 26.5255 28.3963 26.1853 28.3963 25.7656C28.3963 25.3459 28.0561 25.0057 27.6365 25.0057Z" fill="white"/>
<path d="M30.524 27.6494H7.86546C7.44586 27.6494 7.10559 27.9896 7.10559 28.4093C7.10559 28.829 7.44586 29.1691 7.86546 29.1691H30.524C30.9436 29.1691 31.2839 28.829 31.2839 28.4093C31.2839 27.9896 30.9437 27.6494 30.524 27.6494Z" fill="white"/>
<path d="M30.524 30.2931H7.86546C7.44586 30.2931 7.10559 30.6333 7.10559 31.053C7.10559 31.4726 7.44586 31.8128 7.86546 31.8128H30.524C30.9436 31.8128 31.2839 31.4726 31.2839 31.053C31.2839 30.6333 30.9437 30.2931 30.524 30.2931Z" fill="white"/>
<path d="M32.143 17.8138C32.1425 17.7596 32.141 17.7047 32.1384 17.6491C32.1103 17.0615 31.9445 16.4858 31.6593 15.9842C31.6338 15.9394 31.6073 15.8951 31.5802 15.8518C31.1189 15.1164 30.4351 14.6118 29.6547 14.431C29.448 14.3831 29.2353 14.3588 29.0228 14.3588C28.0715 14.3588 27.2982 14.7803 26.8101 15.1417C26.3219 14.7803 25.5487 14.3588 24.5973 14.3588C24.3849 14.3588 24.1723 14.3832 23.9655 14.4311C23.1851 14.6119 22.5013 15.1165 22.0402 15.8517C22.0131 15.8948 21.9869 15.9387 21.961 15.9841C21.6757 16.4859 21.5099 17.0616 21.4818 17.6489C21.4793 17.7027 21.4777 17.7556 21.4772 17.8128C21.477 17.8187 21.477 17.8249 21.4769 17.8294C21.4744 18.224 21.5255 18.595 21.6329 18.9631C21.7343 19.311 21.8872 19.656 22.1011 20.0186L22.1134 20.0388C22.8367 21.2351 25.8044 23.1994 26.3921 23.581C26.49 23.6446 26.5996 23.683 26.7118 23.6966C26.7458 23.7013 26.78 23.7035 26.8143 23.7035C26.9584 23.7035 27.1023 23.6627 27.2281 23.581C27.8157 23.1994 30.7835 21.2351 31.504 20.0433L31.5196 20.0177C31.7329 19.6564 31.8858 19.3114 31.9872 18.9634C32.0947 18.5949 32.1457 18.224 32.1432 17.8342V17.8322C32.1432 17.8268 32.1432 17.8203 32.143 17.8138ZM30.5283 18.5382C30.4623 18.7649 30.3623 18.9881 30.2143 19.2395C30.2116 19.244 30.2078 19.25 30.2063 19.2527C29.8279 19.8785 28.0688 21.1874 26.8102 22.0353C25.4936 21.1482 23.7749 19.8495 23.4145 19.2533C23.413 19.2509 23.4092 19.2447 23.4063 19.2398C23.2579 18.9876 23.158 18.7644 23.092 18.5379C23.0273 18.3162 22.9961 18.0912 22.9967 17.8436C22.9968 17.8396 22.9969 17.8358 22.9969 17.8326C22.9972 17.7963 22.9981 17.7596 22.9999 17.7219C23.0167 17.3717 23.1143 17.0305 23.2816 16.7363C23.2964 16.7103 23.3117 16.6846 23.3276 16.6593C23.5738 16.2667 23.9222 16.0011 24.3085 15.9116C24.4031 15.8897 24.5003 15.8786 24.5974 15.8786C25.5173 15.8786 26.2286 16.6406 26.2451 16.6584C26.3891 16.8187 26.5945 16.9103 26.8103 16.9103C27.026 16.9103 27.2314 16.8186 27.3754 16.6584C27.3919 16.6406 28.1032 15.8786 29.0231 15.8786C29.1202 15.8786 29.2174 15.8897 29.3119 15.9116C29.6983 16.0011 30.0467 16.2666 30.2931 16.6595C30.3087 16.6843 30.3237 16.7096 30.3385 16.7354C30.5063 17.0305 30.6039 17.3717 30.6207 17.7222C30.6224 17.7595 30.6233 17.7963 30.6236 17.8264C30.6236 17.8313 30.6237 17.8371 30.6238 17.8428C30.6248 18.0866 30.5936 18.314 30.5283 18.5382Z" fill="white"/>
<path d="M19.1218 14.3326H7.86546C7.44586 14.3326 7.10559 14.6728 7.10559 15.0925V22.9701C7.10559 23.3898 7.44578 23.73 7.86546 23.73H19.1218C19.5414 23.73 19.8816 23.3898 19.8816 22.9701V15.0925C19.8816 14.6728 19.5414 14.3326 19.1218 14.3326ZM18.3619 22.2102H8.62533V15.8523H18.3619V22.2102Z" fill="white"/>
</g>
<defs>
<clipPath id="clip0">
<rect width="38.9052" height="38.9052" fill="white" transform="translate(0 0.833374)"/>
</clipPath>
</defs>
</svg>
