<svg width="40" height="40" viewBox="0 0 40 40" fill="none" xmlns="http://www.w3.org/2000/svg">
<g clip-path="url(#clip0)">
<path d="M37.2025 2.84998H3.36951C1.97112 2.84998 0.833374 3.98757 0.833374 5.38603V35.1858C0.833374 36.5842 1.97112 37.722 3.36951 37.722H37.2025C38.6008 37.722 39.7386 36.5842 39.7386 35.1858V5.38603C39.7386 3.98757 38.6008 2.84998 37.2025 2.84998ZM38.2189 35.1858C38.2189 35.7462 37.7629 36.2022 37.2025 36.2022H3.36951C2.80903 36.2022 2.35311 35.7462 2.35311 35.1858V10.1154H38.2189V35.1858ZM38.2189 8.59571H2.35311V5.38603C2.35311 4.82563 2.80903 4.36963 3.36951 4.36963H37.2025C37.7629 4.36963 38.2189 4.82556 38.2189 5.38603V8.59571Z" fill="white"/>
<path d="M35.8547 6.34325C35.8458 6.29462 35.8305 6.24674 35.8115 6.20115C35.7925 6.15556 35.7697 6.11073 35.7424 6.06969C35.7143 6.0279 35.6824 5.98915 35.6474 5.95419C35.6125 5.91924 35.5737 5.88733 35.5319 5.85997C35.4908 5.83262 35.4468 5.80906 35.4012 5.79006C35.3548 5.77107 35.3069 5.75663 35.2591 5.74675C35.161 5.72699 35.06 5.72699 34.962 5.74675C34.9133 5.75663 34.8655 5.77107 34.8199 5.79006C34.7736 5.80906 34.7295 5.83262 34.6885 5.85997C34.6467 5.88733 34.6079 5.91924 34.5729 5.95419C34.538 5.98915 34.506 6.0279 34.4788 6.06969C34.4514 6.11073 34.4278 6.15556 34.4088 6.20115C34.3898 6.24674 34.3754 6.29462 34.3655 6.34325C34.3557 6.39188 34.3503 6.44203 34.3503 6.49142C34.3503 6.54157 34.3557 6.59096 34.3655 6.64035C34.3754 6.68899 34.3898 6.7361 34.4088 6.78245C34.4278 6.82804 34.4514 6.87211 34.4788 6.91315C34.506 6.95494 34.538 6.99369 34.5729 7.02865C34.6079 7.0636 34.6467 7.09552 34.6885 7.12363C34.7295 7.15099 34.7736 7.17454 34.8199 7.19354C34.8655 7.21254 34.9133 7.22697 34.962 7.23685C35.0107 7.24673 35.0607 7.25129 35.1101 7.25129C35.31 7.25129 35.506 7.17074 35.6474 7.02865C35.6823 6.99369 35.7142 6.95494 35.7423 6.91315C35.7696 6.87211 35.7924 6.82804 35.8114 6.78245C35.8304 6.7361 35.8456 6.68899 35.8547 6.64035C35.8646 6.59096 35.8699 6.54157 35.8699 6.49142C35.8699 6.44203 35.8646 6.39188 35.8547 6.34325Z" fill="white"/>
<path d="M32.2314 5.73157H17.3164C16.8968 5.73157 16.5565 6.07176 16.5565 6.49144C16.5565 6.91111 16.8968 7.2513 17.3164 7.2513H32.2314C32.651 7.2513 32.9912 6.91111 32.9912 6.49144C32.9912 6.07176 32.651 5.73157 32.2314 5.73157Z" fill="white"/>
<path d="M9.01116 6.34325C9.00136 6.29462 8.98684 6.24674 8.96784 6.20115C8.94885 6.15556 8.92529 6.11073 8.89794 6.06969C8.86982 6.0279 8.83867 5.98915 8.80295 5.95419C8.768 5.91924 8.72925 5.88733 8.68738 5.85997C8.64634 5.83262 8.60235 5.80906 8.55668 5.79006C8.5104 5.77107 8.46246 5.75663 8.41458 5.74675C8.31656 5.72699 8.2155 5.72699 8.11748 5.74675C8.06885 5.75663 8.02097 5.77107 7.97546 5.79006C7.92911 5.80906 7.88503 5.83262 7.844 5.85997C7.80221 5.88733 7.76345 5.91924 7.7285 5.95419C7.69355 5.98915 7.66156 6.0279 7.63428 6.06969C7.60692 6.11073 7.58337 6.15556 7.56437 6.20115C7.54537 6.24674 7.53094 6.29462 7.52106 6.34325C7.51118 6.39188 7.50586 6.44203 7.50586 6.49142C7.50586 6.54081 7.51118 6.59096 7.52106 6.64035C7.53094 6.68823 7.54537 6.7361 7.56437 6.78245C7.58337 6.82804 7.60692 6.87211 7.63428 6.91315C7.66156 6.95494 7.69355 6.99369 7.7285 7.02865C7.76345 7.0636 7.80221 7.09552 7.844 7.12363C7.88503 7.15099 7.92911 7.17454 7.97546 7.19354C8.02105 7.21254 8.06885 7.22697 8.11748 7.23685C8.16618 7.24673 8.21634 7.25129 8.26565 7.25129C8.3158 7.25129 8.36527 7.24673 8.41458 7.23685C8.46246 7.22697 8.5104 7.21254 8.55668 7.19354C8.60235 7.17454 8.64634 7.15099 8.68738 7.12363C8.72925 7.09552 8.768 7.0636 8.80295 7.02865C8.83791 6.99369 8.86982 6.95494 8.89794 6.91315C8.92529 6.87211 8.94885 6.82804 8.96784 6.78245C8.98684 6.7361 9.00128 6.68899 9.01116 6.64035C9.02104 6.59096 9.02552 6.54157 9.02552 6.49142C9.02552 6.44203 9.02096 6.39188 9.01116 6.34325Z" fill="white"/>
<path d="M11.815 6.34325C11.8058 6.29462 11.7906 6.24674 11.7716 6.20115C11.7527 6.1548 11.729 6.11073 11.7017 6.06969C11.6744 6.0279 11.6425 5.98915 11.6075 5.95419C11.5726 5.91924 11.5337 5.88733 11.4919 5.85997C11.4509 5.83262 11.4068 5.80906 11.3606 5.79006C11.3149 5.77107 11.2671 5.75663 11.2185 5.74675C11.1204 5.72699 11.0201 5.72699 10.9214 5.74675C10.8735 5.75663 10.8256 5.77107 10.7793 5.79006C10.7337 5.80906 10.6896 5.83262 10.6486 5.85997C10.6068 5.88733 10.5679 5.91924 10.533 5.95419C10.498 5.98915 10.4661 6.0279 10.438 6.06969C10.4107 6.11073 10.3871 6.1548 10.3681 6.20115C10.3491 6.24674 10.3347 6.29462 10.3249 6.34325C10.315 6.39188 10.3104 6.44203 10.3104 6.49142C10.3104 6.69203 10.3917 6.88731 10.5331 7.02865C10.568 7.0636 10.6068 7.09552 10.6486 7.12363C10.6897 7.15099 10.7337 7.17454 10.7793 7.19354C10.8257 7.21254 10.8736 7.22697 10.9214 7.23685C10.9708 7.24673 11.021 7.25129 11.0704 7.25129C11.1198 7.25129 11.17 7.24673 11.2185 7.23685C11.2672 7.22697 11.315 7.21254 11.3606 7.19354C11.4069 7.17454 11.451 7.15099 11.492 7.12363C11.5338 7.09552 11.5726 7.0636 11.6076 7.02865C11.7489 6.88731 11.8302 6.69203 11.8302 6.49142C11.8302 6.44203 11.8249 6.39188 11.815 6.34325Z" fill="white"/>
<path d="M5.99892 5.95407C5.82271 5.77778 5.55979 5.69723 5.31284 5.74662C5.26489 5.7565 5.21702 5.77094 5.17074 5.78994C5.12507 5.80893 5.081 5.83249 5.03997 5.85984C4.99818 5.8872 4.95942 5.91911 4.92447 5.95407C4.88952 5.98902 4.8576 6.02778 4.82949 6.06957C4.80213 6.1106 4.77857 6.15467 4.75958 6.20103C4.74058 6.24662 4.72614 6.29449 4.71627 6.34312C4.70639 6.39175 4.7019 6.4419 4.7019 6.49129C4.7019 6.54145 4.70646 6.59084 4.71627 6.64023C4.72614 6.6881 4.74058 6.73597 4.75958 6.78232C4.77857 6.82792 4.80213 6.87199 4.82949 6.91302C4.8576 6.95481 4.88952 6.99357 4.92447 7.02852C4.95942 7.06423 4.99818 7.09539 5.03997 7.1235C5.081 7.15086 5.12507 7.17442 5.17074 7.19341C5.21702 7.21241 5.26489 7.22685 5.31284 7.23672C5.36215 7.2466 5.41238 7.25116 5.46177 7.25116C5.66162 7.25116 5.85766 7.17062 5.99892 7.02852C6.14026 6.88719 6.22164 6.69114 6.22164 6.49129C6.22164 6.29145 6.14033 6.0954 5.99892 5.95407Z" fill="white"/>
<path d="M35.6493 11.8046H4.92259C4.50299 11.8046 4.16272 12.1448 4.16272 12.5644V33.6639C4.16272 34.0836 4.50299 34.4238 4.92259 34.4238H35.6493C36.0689 34.4238 36.4091 34.0836 36.4091 33.6639V12.5644C36.4091 12.1448 36.0689 11.8046 35.6493 11.8046ZM34.8894 32.9041H5.68245V13.3243H34.8894V32.9041Z" fill="white"/>
<path d="M18.8949 14.6709H7.76023C7.34063 14.6709 7.00037 15.0111 7.00037 15.4308V30.9071C7.00037 31.3267 7.34063 31.6669 7.76023 31.6669H18.8949C19.3145 31.6669 19.6547 31.3267 19.6547 30.9071V15.4308C19.6547 15.0112 19.3146 14.6709 18.8949 14.6709ZM18.135 30.1473H8.5201V16.1906H18.135V30.1473Z" fill="white"/>
<path d="M14.189 23.1689L16.9537 17.9938C17.1515 17.6237 17.0117 17.1633 16.6416 16.9655C16.2715 16.7678 15.8109 16.9076 15.6133 17.2777L13.3276 21.5562L11.0418 17.2777C10.8441 16.9076 10.3836 16.7678 10.0135 16.9655C9.64341 17.1633 9.50359 17.6237 9.70139 17.9938L12.4661 23.1689L9.70139 28.344C9.50367 28.7141 9.64341 29.1745 10.0135 29.3722C10.1275 29.4332 10.2501 29.462 10.3709 29.462C10.6423 29.462 10.9049 29.3162 11.0418 29.0601L13.3276 24.7815L15.6133 29.0601C15.7502 29.3162 16.0128 29.462 16.2842 29.462C16.405 29.462 16.5276 29.4332 16.6416 29.3722C17.0117 29.1744 17.1515 28.7141 16.9537 28.344L14.189 23.1689Z" fill="white"/>
<path d="M33.0615 14.6709H21.9269C21.9202 14.6709 21.9137 14.6717 21.9071 14.6719C21.8927 14.6723 21.8784 14.6729 21.8641 14.6741C21.8519 14.6751 21.8399 14.6765 21.8279 14.6781C21.8161 14.6797 21.8043 14.6814 21.7926 14.6835C21.7789 14.6859 21.7654 14.6888 21.752 14.6919C21.742 14.6943 21.7321 14.6968 21.7222 14.6996C21.7081 14.7036 21.6942 14.7079 21.6804 14.7126C21.671 14.7158 21.6617 14.7193 21.6524 14.7229C21.6392 14.728 21.626 14.7334 21.6132 14.7393C21.6032 14.7438 21.5934 14.7486 21.5836 14.7535C21.5722 14.7593 21.5609 14.7653 21.5498 14.7717C21.5389 14.7779 21.5282 14.7844 21.5177 14.7912C21.5083 14.7973 21.4989 14.8034 21.4898 14.8099C21.4784 14.8179 21.4673 14.8262 21.4564 14.8349C21.4484 14.8412 21.4405 14.8476 21.4328 14.8543C21.4219 14.8636 21.4113 14.8733 21.4009 14.8833C21.3934 14.8905 21.386 14.8979 21.3788 14.9055C21.3693 14.9153 21.3602 14.9254 21.3512 14.9358C21.3434 14.9449 21.3358 14.9543 21.3284 14.9638C21.321 14.9733 21.3137 14.9828 21.3067 14.9928C21.2985 15.0045 21.2906 15.0166 21.283 15.0288C21.2795 15.0344 21.2755 15.0396 21.2721 15.0454C21.2702 15.0486 21.2687 15.052 21.2668 15.0553C21.2592 15.0687 21.2523 15.0824 21.2455 15.0962C21.2411 15.1052 21.2364 15.1142 21.2324 15.1233C21.2266 15.1364 21.2216 15.1498 21.2165 15.1631C21.2125 15.1736 21.2084 15.1841 21.2049 15.1948C21.201 15.2065 21.1979 15.2185 21.1947 15.2305C21.1912 15.2432 21.1877 15.2558 21.1849 15.2686C21.1826 15.2788 21.181 15.2892 21.1792 15.2995C21.1766 15.3144 21.1741 15.3292 21.1723 15.3441C21.1712 15.3533 21.1707 15.3627 21.17 15.372C21.1687 15.3881 21.1678 15.4042 21.1675 15.4202C21.1674 15.4238 21.167 15.4272 21.167 15.4308V21.9847C21.167 22.4044 21.5073 22.7446 21.9269 22.7446H33.0591C33.0597 22.7446 33.0602 22.7446 33.0607 22.7446C33.0626 22.7446 33.0644 22.7443 33.0662 22.7443C33.0947 22.7441 33.1228 22.7421 33.1504 22.7389C33.1583 22.738 33.1661 22.7364 33.174 22.7353C33.1968 22.732 33.2191 22.7276 33.2411 22.7223C33.2487 22.7205 33.2562 22.7186 33.2637 22.7165C33.2879 22.7098 33.3117 22.7019 33.3348 22.693C33.3394 22.6912 33.3441 22.6898 33.3487 22.6879C33.3764 22.6766 33.4033 22.6638 33.4292 22.6494C33.4348 22.6462 33.4402 22.6426 33.4457 22.6393C33.4652 22.6279 33.4842 22.6156 33.5025 22.6025C33.5111 22.5965 33.5195 22.5902 33.5278 22.5836C33.5443 22.5708 33.5601 22.5573 33.5753 22.5432C33.5819 22.5371 33.5888 22.5314 33.5952 22.5251C33.6158 22.5048 33.6351 22.4833 33.6532 22.4608C33.6581 22.4547 33.6626 22.4482 33.6672 22.442C33.682 22.4225 33.6958 22.4022 33.7087 22.3813C33.7111 22.3773 33.7141 22.374 33.7164 22.37C33.7183 22.3668 33.7197 22.3633 33.7216 22.3601C33.7292 22.3467 33.7362 22.333 33.743 22.3192C33.7474 22.3102 33.752 22.3012 33.756 22.2921C33.7618 22.279 33.7669 22.2656 33.772 22.2522C33.7759 22.2418 33.78 22.2313 33.7835 22.2206C33.7874 22.2089 33.7905 22.1969 33.7938 22.1849C33.7973 22.1722 33.8008 22.1595 33.8036 22.1468C33.8058 22.1366 33.8075 22.1262 33.8093 22.1159C33.8119 22.101 33.8144 22.0861 33.8161 22.0712C33.8172 22.0621 33.8177 22.0527 33.8185 22.0434C33.8197 22.0273 33.8207 22.0112 33.8209 21.9952C33.821 21.9916 33.8214 21.9882 33.8214 21.9846V15.4307C33.8214 15.0112 33.4811 14.6709 33.0615 14.6709ZM22.6867 21.2249V16.7599L30.2726 21.2249H22.6867ZM32.3016 20.6558L24.7158 16.1908H32.3016V20.6558Z" fill="white"/>
<path d="M33.0615 23.5934H21.9268C21.9204 23.5934 21.9142 23.5942 21.9078 23.5944C21.893 23.5948 21.8783 23.5954 21.8635 23.5966C21.8518 23.5976 21.8401 23.5989 21.8285 23.6004C21.8163 23.602 21.8041 23.6038 21.792 23.606C21.7787 23.6084 21.7655 23.6112 21.7525 23.6142C21.7421 23.6166 21.7318 23.6193 21.7215 23.6222C21.7078 23.6261 21.6942 23.6302 21.6808 23.6349C21.671 23.6382 21.6614 23.6418 21.6518 23.6455C21.6389 23.6505 21.6261 23.6558 21.6136 23.6615C21.6033 23.6662 21.5932 23.6711 21.5831 23.6762C21.5719 23.6819 21.5609 23.6878 21.55 23.6939C21.5389 23.7003 21.528 23.707 21.5171 23.7139C21.5079 23.7198 21.4988 23.7258 21.4899 23.7321C21.4784 23.7403 21.467 23.7488 21.4559 23.7576C21.4481 23.7637 21.4404 23.7701 21.4328 23.7765C21.4218 23.7859 21.411 23.7957 21.4004 23.8059C21.393 23.8131 21.3857 23.8204 21.3787 23.8277C21.3692 23.8377 21.3598 23.8478 21.3509 23.8583C21.343 23.8674 21.3356 23.8767 21.3282 23.8861C21.3208 23.8957 21.3135 23.9052 21.3064 23.9152C21.2981 23.9269 21.2904 23.9389 21.2828 23.9511C21.2793 23.9568 21.2753 23.9619 21.2718 23.9677C21.2699 23.971 21.2685 23.9744 21.2666 23.9776C21.259 23.991 21.252 24.0047 21.2452 24.0185C21.2408 24.0276 21.2362 24.0365 21.2322 24.0457C21.2264 24.0587 21.2213 24.0721 21.2162 24.0855C21.2123 24.096 21.2082 24.1064 21.2047 24.1171C21.2008 24.1289 21.1977 24.1409 21.1944 24.1528C21.1909 24.1655 21.1874 24.1782 21.1846 24.1909C21.1824 24.2011 21.1807 24.2115 21.1789 24.2219C21.1763 24.2367 21.1738 24.2516 21.1721 24.2665C21.171 24.2757 21.1705 24.285 21.1697 24.2944C21.1685 24.3105 21.1675 24.3265 21.1673 24.3425C21.1672 24.3461 21.1667 24.3495 21.1667 24.3531V30.907C21.1667 31.3267 21.507 31.6669 21.9266 31.6669H33.0588C33.0594 31.6669 33.06 31.667 33.0605 31.667C33.0623 31.667 33.0641 31.6667 33.066 31.6666C33.0945 31.6664 33.1225 31.6644 33.1502 31.6612C33.1581 31.6603 33.1659 31.6588 33.1738 31.6576C33.1965 31.6543 33.2189 31.65 33.2408 31.6446C33.2484 31.6428 33.2559 31.6409 33.2635 31.6388C33.2877 31.6321 33.3114 31.6243 33.3346 31.6153C33.3391 31.6136 33.3439 31.6121 33.3484 31.6102C33.3762 31.5989 33.4031 31.5861 33.429 31.5717C33.4346 31.5686 33.4399 31.5649 33.4455 31.5617C33.465 31.5502 33.484 31.538 33.5023 31.5249C33.5109 31.5188 33.5192 31.5125 33.5276 31.506C33.544 31.4931 33.5598 31.4796 33.5751 31.4655C33.5817 31.4595 33.5885 31.4538 33.595 31.4474C33.6155 31.4272 33.6348 31.4057 33.653 31.3831C33.6578 31.377 33.6623 31.3706 33.667 31.3643C33.6818 31.3448 33.6955 31.3245 33.7084 31.3036C33.7109 31.2997 33.7138 31.2963 33.7161 31.2924C33.718 31.2891 33.7195 31.2857 33.7214 31.2824C33.729 31.269 33.7359 31.2554 33.7427 31.2415C33.7471 31.2325 33.7518 31.2235 33.7558 31.2144C33.7616 31.2013 33.7666 31.188 33.7717 31.1746C33.7757 31.1641 33.7798 31.1536 33.7833 31.143C33.7872 31.1312 33.7903 31.1192 33.7935 31.1073C33.797 31.0946 33.8005 31.0819 33.8033 31.0691C33.8056 31.0589 33.8072 31.0485 33.809 31.0382C33.8116 31.0234 33.8141 31.0085 33.8159 30.9936C33.8169 30.9844 33.8175 30.975 33.8182 30.9657C33.8195 30.9496 33.8204 30.9336 33.8207 30.9175C33.8208 30.9139 33.8212 30.9105 33.8212 30.907V24.353C33.8214 23.9336 33.4811 23.5934 33.0615 23.5934ZM22.6867 30.1472V25.6822L30.2725 30.1472H22.6867ZM32.3016 29.5781L24.7158 25.113H32.3016V29.5781Z" fill="white"/>
</g>
<defs>
<clipPath id="clip0">
<rect width="38.9052" height="38.9052" fill="white" transform="translate(0.833374 0.833374)"/>
</clipPath>
</defs>
</svg>
