<svg width="32" height="32" viewBox="0 0 32 32" fill="none" xmlns="http://www.w3.org/2000/svg">
<path d="M32 16C32 24.8367 24.8367 32 16 32C7.16333 32 0 24.8367 0 16C0 7.16333 7.16333 0 16 0C24.8367 0 32 7.16333 32 16Z" fill="#039BE5"/>
<path d="M7.32076 15.6534L22.7474 9.70511C23.4633 9.44594 24.0883 9.87927 23.8566 10.9626L23.8583 10.9609L21.2316 23.3359C21.0366 24.2134 20.5158 24.4268 19.7866 24.0134L15.7866 21.0651L13.8574 22.9234C13.6441 23.1368 13.4641 23.3168 13.0508 23.3168L13.3349 19.2459L20.7483 12.5484C21.0708 12.2643 20.6766 12.1043 20.2508 12.3868L11.0891 18.1551L7.13992 16.9234C6.28242 16.6518 6.26409 16.0668 7.32076 15.6534Z" fill="white"/>
</svg>
